<?xml version="1.0" encoding="utf-8"?>
<!-- Generator: Adobe Illustrator 21.1.0, SVG Export Plug-In . SVG Version: 6.00 Build 0)  -->
<svg version="1.1" id="layer" xmlns="http://www.w3.org/2000/svg" xmlns:xlink="http://www.w3.org/1999/xlink" x="0px" y="0px"
	 viewBox="0 0 623.6 250.4" style="enable-background:new 0 0 623.6 250.4;" xml:space="preserve">
<style type="text/css">
	.st0{fill:#00338D;}
</style>
<path class="st0" d="M485.2,0v125c-4.4,3.4-8.1,7.1-11.5,11.1V0H335.2v113.8h-11.5V0H185.3v114h-11.4V0H35.4v129.9L0,247.7h31.1
	l15.6-52.2h4.5L77,247.7h37.5l-25-52.2h56.7l-15.7,52.2h34l15.5-52h7.5v-0.2h75.6l-15,52h34.2l14.5-52h15.4l0.4,52h28.7l33-52h21.6
	l-11.1,52h33.7l10.9-52h19.5c-0.8,16.1,3.3,30.8,14,40.6c13.1,12,33.1,14.3,48,14.3c20.3,0,41.4-2.9,62.6-7.7l11.7-47.2h38.4V0
	H485.2z M168.8,120.6l-2,6.7l-18.4,61.2l-0.7,2.2H87.1l-4.7-10l65.3-66.7h-41.9l-51,55l16.5-55h-31V4.9h128.5V120.6z M204.6,172.3
	L204.6,172.3c-1.3,0.1-2.5,0.2-4,0.2c-1.9,0-3.3,0.1-4.7,0.1l-8.2-0.1l3.8-14.1l1.8-7l4.3-16.3c1.9,0,3.8-0.1,5.6-0.1h6.4
	c10.9,0,17.8,0.6,20.3,4.1c1.9,2.6,1.7,7.2-0.6,14.1C225.3,165.1,220.4,171.1,204.6,172.3 M298.2,190.6l13.5-48.1l0.5,48.1H298.2z
	 M318.8,113.8h-32.2l-22.1,76.9h-34.1c17.4-6.4,28-18.7,31.2-37c2.7-14.2,1.4-23.5-4.4-30.5c-8.7-10.4-26-9.5-41.5-9.5
	c-2.7,0-25.5,0-25.5,0V4.9h128.5v108.9H318.8z M396.9,190.6h-19.4l29.3-46.1L396.9,190.6z M468.7,115.9l-0.1,26.6
	c-9,12.4-14.5,25.9-17.1,36.8c-1,3.8-1.7,7.5-2,11.3h-18.9l16.2-76.7h-54.4l-48.8,76.7h-3.5V4.9h128.6V115.9z M542.8,222
	c-7.3,1.3-14.7,2.2-21.6,2.2c-18.5,0-31.5-8.6-31.7-28.7h59.9L542.8,222z M618.8,190.6h-32.4l5.3-21.4h-64.9l-5.3,21.4h-31.4v-4.4
	c0.5-2.4,0.9-4.9,1.5-7.7c5.7-23.1,20.9-45.9,47.1-45.9c10.4,0,20.7,4,19.3,18.3h38.6c1.5-6.7,4.1-18.1-3.2-28.6
	c-8.2-11.4-24.8-16-46.3-16c-15.3,0-37.7,2.4-57,15.1V4.9h128.7V190.6z"/>
</svg>
